<?xml version="1.0" standalone="no"?>
<!DOCTYPE svg PUBLIC "-//W3C//DTD SVG 20010904//EN"
 "http://www.w3.org/TR/2001/REC-SVG-20010904/DTD/svg10.dtd">
<svg version="1.0" xmlns="http://www.w3.org/2000/svg"
 width="310.000000pt" height="310.000000pt" viewBox="0 0 310.000000 310.000000"
 preserveAspectRatio="xMidYMid meet">
<metadata>
Created by potrace 1.14, written by Peter Selinger 2001-2017
</metadata>
<g transform="translate(0.000000,310.000000) scale(0.100000,-0.100000)"
fill="#000000" stroke="none">
<path d="M1500 3020 c0 -3 -14 -7 -31 -8 -17 -1 -39 -7 -49 -12 -9 -5 -20 -6
-24 -3 -3 3 -6 2 -6 -4 0 -9 -6 -11 -49 -15 -11 -1 -19 -6 -18 -11 1 -5 -7
-11 -17 -13 -10 -1 -23 -9 -27 -16 -7 -10 -9 -10 -9 2 -1 12 -3 11 -14 -3 -8
-10 -17 -18 -20 -18 -21 3 -26 0 -20 -11 4 -7 3 -8 -5 -4 -6 4 -25 -3 -43 -15
-18 -14 -28 -17 -24 -8 4 7 1 6 -7 -3 -8 -10 -22 -18 -31 -18 -9 0 -16 -5 -16
-10 0 -6 -3 -9 -7 -9 -20 3 -34 -2 -28 -11 5 -9 -8 -12 -31 -9 -4 0 -10 -3
-13 -8 -11 -16 -89 -52 -97 -45 -4 4 -4 2 -1 -4 6 -11 -26 -28 -45 -25 -5 1
-8 -4 -8 -10 0 -5 -4 -8 -9 -4 -6 3 -14 -3 -20 -12 -6 -10 -11 -15 -11 -10 0
4 -10 1 -23 -8 -13 -8 -27 -12 -30 -8 -4 3 -7 -1 -7 -11 0 -9 -4 -14 -10 -11
-10 6 -59 -21 -72 -40 -4 -5 -8 -7 -8 -2 0 4 -11 0 -25 -9 -14 -9 -25 -12 -25
-8 0 5 -5 1 -11 -9 -6 -9 -14 -15 -20 -12 -5 4 -9 2 -9 -3 0 -4 -16 -14 -35
-22 -19 -8 -35 -16 -35 -20 0 -3 -20 -14 -45 -24 -25 -11 -45 -22 -45 -26 0
-4 -8 -10 -17 -13 -26 -9 -127 -68 -134 -79 -3 -5 -10 -8 -15 -6 -5 2 -20 -7
-34 -19 -13 -13 -28 -23 -32 -23 -5 0 -25 -18 -45 -40 -20 -21 -41 -36 -46
-33 -6 3 -7 1 -3 -5 4 -7 2 -12 -4 -12 -6 0 -9 -4 -5 -9 3 -5 0 -15 -7 -23 -7
-7 -14 -20 -16 -28 -2 -8 -8 -17 -13 -18 -6 -3 -5 -10 2 -18 9 -11 8 -14 -1
-14 -8 0 -10 -3 -7 -7 4 -3 1 -13 -6 -21 -10 -13 -9 -14 3 -7 12 7 13 6 3 -6
-10 -12 -10 -18 -1 -27 9 -9 9 -12 0 -12 -15 0 -12 -31 3 -42 7 -5 7 -11 0
-15 -13 -10 -15 -63 -2 -63 5 0 5 -5 -2 -13 -8 -10 -7 -17 1 -25 8 -8 8 -15
-3 -28 -8 -9 -14 -18 -13 -18 0 -1 6 -12 13 -25 9 -16 10 -21 1 -16 -14 9 -10
-26 5 -37 7 -5 7 -11 0 -15 -13 -10 -15 -63 -2 -63 5 0 5 -5 -2 -13 -8 -10 -7
-17 1 -25 8 -8 8 -15 -3 -28 -8 -9 -12 -20 -11 -23 20 -33 23 -43 12 -36 -14
9 -10 -26 5 -37 7 -5 7 -11 0 -15 -13 -10 -15 -63 -2 -63 5 0 5 -5 -2 -13 -8
-10 -7 -17 1 -25 8 -8 8 -15 0 -24 -13 -16 -13 -28 0 -52 7 -13 7 -16 -2 -11
-14 9 -10 -26 5 -37 7 -5 7 -11 0 -15 -13 -10 -15 -63 -2 -63 5 0 5 -5 -2 -13
-8 -10 -7 -17 1 -25 8 -8 8 -15 -3 -28 -8 -9 -12 -20 -11 -23 20 -33 23 -43
12 -36 -14 9 -10 -26 5 -38 7 -4 7 -10 0 -15 -13 -9 -15 -62 -2 -62 5 0 4 -7
-3 -15 -7 -8 -8 -15 -3 -15 6 0 9 -11 8 -25 -2 -14 1 -25 6 -25 4 0 6 -6 3
-14 -3 -7 2 -21 11 -30 9 -9 13 -16 9 -16 -4 0 16 -21 44 -47 70 -65 82 -75
82 -67 0 3 17 -6 37 -22 20 -15 33 -21 29 -13 -4 8 1 4 12 -8 11 -12 22 -19
26 -16 3 4 6 1 6 -6 0 -7 4 -9 10 -6 6 3 10 1 10 -5 0 -6 5 -8 10 -5 6 3 10 2
10 -4 0 -6 11 -13 25 -17 14 -3 25 -10 25 -15 0 -5 6 -9 14 -9 7 0 25 -9 39
-20 14 -11 32 -20 41 -20 9 0 16 -4 16 -10 0 -5 7 -10 15 -10 8 0 15 -5 15
-11 0 -5 5 -7 10 -4 6 3 10 1 10 -4 0 -6 6 -11 14 -11 8 0 16 -3 18 -7 1 -5
35 -24 75 -44 40 -20 69 -39 66 -43 -4 -3 -1 -7 5 -7 32 -4 82 -29 82 -42 0
-6 3 -7 7 -4 3 4 22 -5 41 -20 20 -15 32 -20 28 -12 -4 8 -1 6 8 -5 8 -10 19
-15 24 -12 6 3 12 -1 16 -9 3 -8 12 -15 19 -15 8 0 20 -7 27 -15 7 -8 21 -15
31 -15 10 0 22 -8 28 -17 5 -10 13 -15 17 -11 4 4 13 0 21 -10 10 -11 12 -12
8 -2 -5 12 -4 12 7 -1 7 -8 28 -22 46 -30 17 -7 32 -17 32 -21 0 -5 9 -8 21
-8 11 0 17 -4 14 -10 -3 -5 1 -10 11 -10 9 0 23 -8 31 -17 10 -12 12 -13 8 -3
-5 12 -4 12 7 -1 7 -9 19 -14 26 -12 6 3 12 -1 12 -8 0 -7 3 -9 7 -6 3 4 11 3
17 -2 33 -25 185 -45 219 -29 12 6 17 5 17 -4 0 -9 3 -9 10 2 5 8 10 11 10 7
0 -4 9 -3 20 3 15 8 20 8 20 -2 0 -8 3 -9 8 -3 12 17 46 32 65 29 9 -1 17 2
17 7 0 6 4 8 9 5 5 -3 14 1 21 10 7 8 19 13 27 10 7 -3 13 -1 13 5 0 6 4 8 9
5 5 -3 12 1 15 10 3 8 10 12 16 9 5 -3 10 -1 10 5 0 6 4 9 9 6 5 -3 14 1 21 9
7 8 16 12 21 9 5 -3 9 0 9 6 0 6 5 8 10 5 6 -3 13 0 16 9 3 8 12 12 20 9 8 -3
14 0 14 7 0 6 5 8 10 5 6 -3 13 1 16 9 3 9 10 14 14 11 5 -3 11 -1 15 5 4 6
11 8 16 5 5 -4 12 1 15 10 4 9 12 14 20 11 7 -3 18 2 24 10 7 8 19 14 27 14 8
0 11 4 8 10 -3 5 0 7 8 4 8 -3 22 2 31 11 9 9 25 17 36 18 11 1 20 7 20 13 0
7 8 11 17 10 9 -2 24 5 34 15 11 11 25 16 35 12 12 -4 15 -3 10 5 -6 11 5 17
27 13 4 0 7 3 7 8 0 8 42 27 68 31 4 1 11 8 15 16 5 8 12 12 18 9 5 -4 9 -1 9
4 0 6 3 10 8 9 18 -4 63 23 56 34 -4 6 -3 8 3 5 12 -8 76 16 68 25 -3 3 8 8
25 12 20 4 29 10 24 17 -4 8 -3 9 4 5 10 -6 50 10 62 25 3 4 15 9 28 13 12 4
20 11 17 16 -3 4 1 8 8 7 32 -1 48 4 42 13 -3 6 3 10 14 10 12 0 21 5 21 11 0
5 5 7 10 4 6 -3 10 -2 10 3 0 10 70 48 83 44 4 -1 6 1 5 5 -3 8 40 55 45 51 2
-2 11 5 20 14 12 12 14 18 4 21 -7 3 -5 6 6 6 10 1 17 9 17 22 0 11 5 17 10
14 6 -3 10 -1 10 4 0 6 -6 11 -12 11 -9 0 -10 3 -2 8 6 4 11 14 11 22 0 8 4
23 8 33 4 10 3 17 -4 17 -6 0 -11 5 -11 11 0 5 3 8 8 5 4 -2 8 11 8 30 0 19
-4 34 -9 34 -5 0 -4 7 4 16 10 13 10 17 -2 25 -8 5 -9 9 -3 9 6 0 11 7 11 15
0 8 -5 15 -10 15 -5 0 -4 7 4 16 10 13 10 17 -2 25 -8 5 -9 9 -3 9 6 0 11 7
11 15 0 8 -5 15 -10 15 -5 0 -4 7 4 16 10 13 10 17 -2 25 -8 5 -9 9 -3 9 6 0
11 7 11 15 0 8 -5 15 -10 15 -5 0 -4 7 4 16 10 13 10 17 -2 25 -12 8 -12 10 1
19 11 7 12 12 3 21 -8 8 -9 18 -4 28 11 20 11 32 0 53 -6 11 -5 18 4 21 9 3 9
7 0 17 -7 8 -9 19 -4 29 5 9 10 18 12 21 1 3 -3 15 -10 28 -7 13 -8 22 -2 22
5 0 9 9 8 20 -1 11 -5 20 -10 20 -5 0 -5 6 0 13 13 15 13 47 0 47 -5 0 -4 7 4
16 10 13 10 17 -2 25 -8 5 -9 9 -3 9 6 0 11 7 11 15 0 8 -5 15 -10 15 -5 0 -4
7 4 16 10 13 10 17 -2 25 -8 5 -9 9 -3 9 6 0 11 7 11 15 0 8 -5 15 -10 15 -5
0 -4 7 4 16 10 13 10 17 -2 25 -8 5 -9 9 -3 9 6 0 11 7 11 15 0 8 -5 15 -10
15 -5 0 -4 7 4 16 7 9 9 18 3 22 -12 9 -17 35 -5 28 5 -4 9 3 8 14 -1 11 -4
20 -7 20 -4 0 -7 7 -7 15 0 8 4 12 9 9 4 -3 8 -1 8 5 0 5 -4 12 -9 15 -5 3 -7
19 -5 36 2 19 -1 30 -9 30 -9 0 -8 3 1 9 11 6 10 11 -3 25 -9 9 -13 16 -8 16
4 0 -1 7 -12 16 -11 8 -19 17 -17 19 7 13 0 25 -14 25 -8 0 -13 3 -11 8 2 4
-15 26 -39 49 -24 22 -44 39 -44 36 0 -2 -7 3 -16 11 -8 9 -22 16 -30 16 -8 0
-13 4 -10 8 3 5 -11 14 -30 21 -19 7 -32 16 -30 20 3 4 -5 8 -17 8 -12 1 -23
7 -25 13 -2 5 -10 10 -18 10 -8 0 -14 5 -14 11 0 5 -4 7 -10 4 -5 -3 -10 -1
-10 5 0 6 -4 8 -10 5 -5 -3 -10 -2 -10 4 0 10 -38 27 -52 23 -5 -1 -7 3 -5 10
1 7 -4 13 -10 14 -7 1 -15 3 -18 4 -3 1 -11 3 -17 4 -7 1 -12 8 -10 16 2 8 0
12 -4 8 -4 -4 -13 -3 -21 3 -7 6 -13 8 -13 5 0 -4 -7 -1 -15 6 -32 29 -41 34
-51 31 -6 -2 -17 3 -24 12 -7 8 -21 15 -32 15 -10 0 -16 5 -13 10 6 9 -8 14
-27 11 -5 0 -8 3 -8 8 0 7 -36 22 -49 20 -2 0 -7 5 -12 13 -5 7 -13 13 -19 13
-6 0 -15 7 -20 15 -5 8 -10 11 -10 6 0 -5 -10 -1 -22 10 -14 13 -19 14 -14 4
4 -8 -1 -6 -11 6 -10 11 -24 19 -31 16 -6 -2 -12 2 -12 8 0 7 -7 10 -16 6 -8
-3 -13 -2 -10 3 5 7 -28 22 -43 20 -2 0 -7 5 -12 13 -5 7 -13 13 -19 13 -6 0
-14 6 -19 13 -5 8 -11 13 -15 12 -11 -2 -66 24 -66 32 0 5 -9 8 -19 8 -11 0
-21 4 -23 9 -1 5 -9 11 -17 13 -8 2 -22 9 -30 16 -9 7 -20 13 -26 13 -5 0 -16
5 -22 11 -7 6 -13 7 -13 4 0 -4 -7 0 -16 8 -8 9 -19 14 -24 11 -5 -3 -10 -1
-12 5 -1 5 -14 11 -28 14 -14 2 -26 5 -27 7 -2 1 -6 2 -10 3 -5 1 -12 4 -18 7
-5 4 -18 5 -27 4 -10 -2 -18 1 -18 6 0 6 -7 6 -19 0 -10 -6 -22 -7 -25 -3 -9
8 -76 10 -76 2z m179 -629 c11 -6 23 -20 26 -31 4 -11 9 -18 13 -16 4 2 13 -2
20 -10 7 -8 10 -14 7 -14 -3 0 21 -27 54 -59 34 -33 61 -63 61 -66 0 -4 33
-40 74 -80 42 -41 69 -76 63 -79 -7 -2 -2 -5 11 -5 13 -1 21 -5 18 -9 -3 -4
11 -21 30 -37 19 -16 34 -34 34 -42 0 -7 6 -13 14 -13 8 0 24 -16 36 -35 12
-19 26 -33 31 -29 5 3 9 1 9 -5 0 -5 23 -33 50 -61 28 -28 50 -56 50 -61 0 -5
8 -9 17 -9 9 0 13 -3 10 -7 -4 -3 4 -14 19 -23 14 -10 25 -20 25 -24 -3 -18 0
-26 7 -23 4 1 27 -18 49 -43 l41 -44 -24 -23 c-13 -12 -24 -25 -24 -29 0 -11
-48 -52 -54 -46 -3 3 -6 -2 -6 -11 0 -9 -9 -21 -19 -27 -11 -5 -22 -19 -26
-29 -3 -11 -15 -23 -26 -26 -11 -4 -18 -9 -16 -12 3 -3 -17 -27 -44 -54 -27
-27 -49 -54 -49 -59 0 -6 -3 -9 -7 -7 -5 2 -18 -6 -31 -19 -12 -13 -21 -24
-18 -24 2 0 -65 -70 -150 -155 -85 -85 -159 -155 -164 -155 -6 0 -10 -5 -10
-11 0 -14 -47 -59 -61 -59 -6 0 -7 -4 -4 -10 3 -5 2 -10 -3 -10 -13 0 -97 -83
-94 -92 1 -4 -1 -7 -5 -6 -13 2 -43 -14 -39 -21 3 -4 -11 -17 -30 -30 -33 -23
-35 -23 -54 -6 -11 10 -20 25 -20 33 0 9 -3 13 -6 9 -9 -8 -55 44 -48 55 3 4
2 7 -3 6 -12 -4 -63 48 -56 56 4 3 -1 6 -10 6 -10 0 -17 4 -17 10 0 5 -16 25
-35 45 -20 19 -32 35 -28 35 4 0 -3 7 -15 16 -12 8 -22 22 -22 30 0 8 -4 12
-10 9 -5 -3 -10 -2 -10 2 0 5 -13 23 -30 41 -16 18 -30 37 -30 43 0 5 -4 9
-10 9 -14 0 -50 37 -43 44 3 3 -2 8 -11 12 -9 3 -16 13 -16 22 0 8 -3 13 -6 9
-4 -3 -17 8 -29 26 -12 18 -28 31 -36 29 -8 -2 -11 -1 -7 3 6 7 -11 30 -67 89
-16 18 -48 54 -70 81 -22 27 -59 69 -82 93 -24 24 -43 47 -43 52 0 4 -7 11
-16 14 -8 3 -12 10 -9 16 3 5 -1 10 -9 10 -13 0 -14 4 -4 25 6 14 13 23 16 21
6 -7 31 18 25 27 -2 4 1 7 8 7 6 0 22 11 35 25 13 14 28 25 34 25 5 0 9 5 7
12 -1 7 5 13 13 13 8 0 14 5 13 10 0 6 5 16 13 23 8 7 14 10 14 7 0 -4 25 18
55 49 30 30 55 53 55 50 0 -3 11 6 24 18 13 13 21 26 19 31 -4 6 12 11 30 8 7
-1 11 15 8 32 0 4 5 6 11 5 7 -2 12 3 10 10 -1 6 1 11 5 10 12 -4 54 28 46 35
-3 4 -2 7 3 7 6 0 36 24 69 54 32 30 64 52 69 49 6 -3 8 -3 4 1 -8 9 36 56 52
56 6 0 8 5 5 10 -3 6 1 10 10 10 9 0 13 5 10 10 -6 9 8 14 28 11 4 0 7 6 7 14
0 8 7 15 16 15 8 0 12 5 9 10 -3 6 -2 10 3 10 5 0 31 20 58 45 27 25 52 45 56
45 5 0 8 8 8 18 0 14 2 15 10 2 8 -13 10 -13 10 2 0 9 9 19 20 23 11 3 19 12
17 18 -1 7 4 11 11 10 6 -2 12 2 12 8 0 5 5 7 10 4 6 -3 10 0 11 7 0 7 4 3 9
-9 5 -12 18 -26 29 -32z"/>
</g>
</svg>
