<?xml version="1.0" encoding="utf-8"?>
<!-- Generator: Adobe Illustrator 23.0.4, SVG Export Plug-In . SVG Version: 6.00 Build 0)  -->
<svg version="1.1" id="Ebene_1" xmlns="http://www.w3.org/2000/svg" xmlns:xlink="http://www.w3.org/1999/xlink" x="0px" y="0px"
	 viewBox="0 0 136.1 65.6" style="enable-background:new 0 0 136.1 65.6;" xml:space="preserve">
<style type="text/css">
	.st0{clip-path:url(#SVGID_7_);}
	.st1{clip-path:url(#SVGID_14_);}
	.st2{clip-path:url(#SVGID_19_);}
	.st3{fill:#DADADA;}
</style>
<g>
	<g>
		<defs>
			<path id="SVGID_1_" d="M48.2,32.4c-4.8-5.1-10.6-11.3-14.9-15.9c5.8,5.9,11,11.1,15.3,15.4c-0.1,0.1-0.1,0.1-0.2,0.2
				C48.4,32.2,48.3,32.3,48.2,32.4"/>
		</defs>
		<linearGradient id="SVGID_2_" gradientUnits="userSpaceOnUse" x1="33.7374" y1="16.8839" x2="49.1761" y2="32.8595">
			<stop  offset="0.2352" style="stop-color:#878787"/>
			<stop  offset="0.3328" style="stop-color:#9F9F9E"/>
			<stop  offset="0.5174" style="stop-color:#C6C6C6"/>
			<stop  offset="0.612" style="stop-color:#B3B3B3"/>
			<stop  offset="0.8756" style="stop-color:#7C7C7B"/>
			<stop  offset="1" style="stop-color:#646463"/>
		</linearGradient>
		<use xlink:href="#SVGID_1_"  style="overflow:visible;fill:url(#SVGID_2_);"/>
		<clipPath id="SVGID_3_">
			<use xlink:href="#SVGID_1_"  style="overflow:visible;"/>
		</clipPath>
	</g>
	<g>
		<defs>
			<path id="SVGID_4_" d="M48.7,31.9c-4.9-4.9-11-11-17.7-17.8c-0.7-0.7-1-1.3-1-1.8c0-1.2,1.5-2,4.1-2c2,0,4.8,0.5,7.9,1.7
				c1.6,1,4.9,2.6,6.8,3.6c1.6,0.9,3.2,1.8,4.2,2.4c0.2,0.1,0.5,0.3,0.7,0.4C56.8,20.5,55.8,23.8,48.7,31.9"/>
		</defs>
		<defs>
			<path id="SVGID_5_" d="M56.4,23.8c0-2.9,0.8-3.3-3.5-5.8c-1-0.6-2.6-1.5-4.2-2.4c-1.9-1.1-5.2-2.7-6.8-3.6
				c-8.7-3.4-14.3-1.3-11,2.1c10.8,11,20.1,19.9,25.2,25.5C58,41.6,56.4,26.5,56.4,23.8"/>
		</defs>
		<linearGradient id="SVGID_6_" gradientUnits="userSpaceOnUse" x1="51.4316" y1="30.6078" x2="41.1083" y2="13.246">
			<stop  offset="0.1006" style="stop-color:#E49B0A"/>
			<stop  offset="0.2697" style="stop-color:#F1AD3A"/>
			<stop  offset="0.4124" style="stop-color:#F8B953"/>
			<stop  offset="0.5071" style="stop-color:#FBBE5B"/>
			<stop  offset="0.612" style="stop-color:#FAB84B"/>
			<stop  offset="0.8136" style="stop-color:#F8A919"/>
			<stop  offset="0.8434" style="stop-color:#F7A70B"/>
		</linearGradient>
		<use xlink:href="#SVGID_5_"  style="overflow:visible;fill:url(#SVGID_6_);"/>
		<clipPath id="SVGID_7_">
			<use xlink:href="#SVGID_4_"  style="overflow:visible;"/>
		</clipPath>
		<clipPath id="SVGID_8_" class="st0">
			<use xlink:href="#SVGID_5_"  style="overflow:visible;"/>
		</clipPath>
	</g>
	<g>
		<defs>
			<path id="SVGID_9_" d="M25.4,50.4c-4.3,0-9.1-1.4-11.6-2.7c0,0,0.1,0,0.1,0.1c0,0-0.1-0.1-0.1-0.1c0,0,0.1,0,0.1,0
				C16.4,49,21.1,50.4,25.4,50.4c2.6,0,5.1-0.5,6.8-1.9c0.2-0.1,0.3-0.3,0.5-0.4c0,0,0,0,0.1-0.1c4.3-3.7,11.5-11.2,15.4-15.6
				c0.1-0.1,0.2-0.2,0.3-0.3c0.1-0.1,0.1-0.1,0.2-0.2l0,0c7.1-8,8.1-11.3,4.9-13.5c0,0,0,0,0,0c1.4,0.8,2.8,1.7,3.6,2.8
				c0.3,0.4,0.5,1,0.5,1.8c0,0.9-0.4,2-1.5,3.2C53.5,29,50,32.6,45.9,36.5c-0.2-0.4-0.4-0.7-0.6-1c-4.2,4.5-9.8,10.1-13.1,12.9
				C30.6,49.9,28.1,50.4,25.4,50.4 M13.8,47.6c0,0-0.1-0.1-0.1-0.1C13.8,47.6,13.8,47.6,13.8,47.6"/>
		</defs>
		<clipPath id="SVGID_10_">
			<use xlink:href="#SVGID_9_"  style="overflow:visible;"/>
		</clipPath>
	</g>
	<g>
		<defs>
			<path id="SVGID_11_" d="M26.7,52.4c-4.5,0-10.4-3.5-11.3-3.9c-0.5-0.3-0.9-0.5-1.4-0.8l0,0c0,0-0.1,0-0.1-0.1
				c2.5,1.3,7.2,2.7,11.6,2.7c2.6,0,5.1-0.5,6.8-1.9c3.3-2.8,8.9-8.4,13.1-12.9c0.2,0.3,0.4,0.6,0.6,1c-4.6,4.5-10,9.5-15.7,14.7
				C29.3,52.1,28,52.4,26.7,52.4"/>
		</defs>
		<defs>
			<path id="SVGID_12_" d="M53.6,18.3c3.3,2.2,2.2,5.5-5,13.7c-4,4.5-12.1,12.8-16.3,16.4c-4.4,3.7-14.7,1.3-18.5-0.9
				c4.4,2.5,8.8,5,10.9,6.1c4.6,2.5,5.7,3.2,13.6-0.6c1.4-0.4,2.7-0.8,3.4-1.2c7.6-4.7,9.8-5,13.5-7.4c0.1-0.7,2.6-10.5,2.6-17
				c0-1.8,0.3-3,0.2-4.4c0-0.5,0.1-0.6-0.1-1.1C57.2,20.6,55.4,19.3,53.6,18.3"/>
		</defs>
		<linearGradient id="SVGID_13_" gradientUnits="userSpaceOnUse" x1="23.3777" y1="54.8851" x2="60.4305" y2="24.8803">
			<stop  offset="0" style="stop-color:#646463"/>
			<stop  offset="1.542937e-02" style="stop-color:#6B6B6B"/>
			<stop  offset="3.957948e-02" style="stop-color:#818080"/>
			<stop  offset="6.942742e-02" style="stop-color:#A0A09F"/>
			<stop  offset="0.1038" style="stop-color:#C9C8C8"/>
			<stop  offset="0.1398" style="stop-color:#F6F6F6"/>
			<stop  offset="0.1553" style="stop-color:#EEEEEE"/>
			<stop  offset="0.2215" style="stop-color:#D1D1D1"/>
			<stop  offset="0.2898" style="stop-color:#B8B7B7"/>
			<stop  offset="0.36" style="stop-color:#A3A3A2"/>
			<stop  offset="0.4326" style="stop-color:#949393"/>
			<stop  offset="0.5092" style="stop-color:#8A8A8A"/>
			<stop  offset="0.5967" style="stop-color:#878787"/>
			<stop  offset="0.6496" style="stop-color:#8F8F8E"/>
			<stop  offset="0.7343" style="stop-color:#A2A2A2"/>
			<stop  offset="0.8401" style="stop-color:#C1C1C1"/>
			<stop  offset="0.9618" style="stop-color:#E9E9E9"/>
			<stop  offset="1" style="stop-color:#F6F6F6"/>
		</linearGradient>
		<use xlink:href="#SVGID_12_"  style="overflow:visible;fill:url(#SVGID_13_);"/>
		<clipPath id="SVGID_14_">
			<use xlink:href="#SVGID_11_"  style="overflow:visible;"/>
		</clipPath>
		<clipPath id="SVGID_15_" class="st1">
			<use xlink:href="#SVGID_12_"  style="overflow:visible;"/>
		</clipPath>
	</g>
	<g>
		<defs>
			<path id="SVGID_16_" d="M32.6,57.1c-1.7,0-3-0.6-3.9-1.1c-2.5-1.4-6.2-3.4-13.3-7.5c0.8,0.4,6.8,3.9,11.3,3.9
				c1.4,0,2.6-0.3,3.5-1.2c10.8-9.7,20.3-19,26-25.1c1.1-1.2,1.5-2.3,1.5-3.2l0,0c0-0.8-0.3-1.4-0.5-1.8c1,1.3,1.1,1.7,1.1,4.9
				c0,2.1,0,5.3,0,8.3l0,0c0,0,0,0,0,0c0,0,0,0.1,0,0.1l0,0c0,0,0,0,0,0c0,0,0,0.1,0,0.1l0,0c0,0,0,0,0,0c0,0,0,0,0,0.1l0,0
				c0,0,0,0,0,0c0,0,0,0,0,0.1l0,0c0,0,0,0,0,0c0,0,0,0,0,0.1l0,0c0,0,0,0,0,0c0,0,0,0,0,0.1l0,0c0,0,0,0,0,0c0,0,0,0,0,0.1l0,0
				c0,0,0,0,0,0c0,0,0,0,0,0.1l0,0c0,0,0,0,0,0c0,0,0,0,0,0.1l0,0c0,0,0,0,0,0c0,0,0,0,0,0l0,0c0,0,0,0,0,0c0,0,0,0,0,0l0,0
				c0,0,0,0,0,0c0,0,0,0,0,0.1l0,0c0,0,0,0,0,0c0,0,0,0,0,0l0,0c0,0,0,0,0,0c0,0,0,0,0,0l0,0c0,0,0,0,0,0c0,0,0,0,0,0l0,0
				c0,0,0,0,0,0c0,0,0,0,0,0l0,0c0,0,0,0,0,0c0,0,0,0,0,0l0,0c0,0,0,0,0,0c0,0,0,0,0,0l0,0c0,0,0,0,0,0c0,0,0,0,0,0l0,0c0,0,0,0,0,0
				c0,0,0,0,0,0l0,0c0,0,0,0,0,0c0,0,0,0,0,0l0,0c0,0,0,0,0,0c0,0,0,0,0,0l0,0c0,0,0,0,0,0c0,0,0,0,0,0l0,0c0,0,0,0,0,0c0,0,0,0,0,0
				l0,0c0,0,0,0,0,0c0,0,0,0,0,0l0,0c0,0,0,0,0,0c0,0,0,0,0,0l0,0c0,0,0,0,0,0c0,0,0,0,0,0l0,0c0,0,0,0,0,0c0,0,0,0,0,0l0,0
				c0,0,0,0,0,0c0,0,0,0,0,0l0,0c0,0,0,0,0,0c0,0,0,0,0,0l0,0c0,0,0,0,0,0c0,0,0,0,0,0l0,0c0,0,0,0,0,0c0,0,0,0,0,0l0,0c0,0,0,0,0,0
				c0,0,0,0,0,0l0,0c0,0,0,0,0,0c0,0,0,0,0,0l0,0c0,0,0,0,0,0c0,0,0,0,0,0l0,0c0,0,0,0,0,0c0,0,0,0,0,0l0,0c0,0,0,0,0,0c0,0,0,0,0,0
				l0,0c0,0,0,0,0,0c0,0,0,0,0,0l0,0c0,0,0,0,0,0c0,0,0,0,0,0l0,0c0,0,0,0,0,0s0,0,0,0l0,0c0,0,0,0,0,0c0,0,0,0,0,0l0,0c0,0,0,0,0,0
				c0,0,0,0,0,0l0,0c0,0,0,0,0,0c0,0,0,0,0,0l0,0c0,0,0,0,0,0s0,0,0,0l0,0c0,0,0,0,0,0c0,0,0,0,0,0l0,0c0,0,0,0,0,0c0,0,0,0,0,0l0,0
				c0,0,0,0,0,0c0,0,0,0,0,0l0,0c0,0,0,0,0,0c0,0,0,0,0,0l0,0c0,0,0,0,0,0c0,0,0,0,0,0l0,0c0,0,0,0,0,0c0,0,0,0,0,0l0,0c0,0,0,0,0,0
				c0,0,0,0,0,0l0,0c0,0,0,0,0,0c0,0,0,0,0,0l0,0c0,0,0,0,0,0c0,0,0,0,0,0l0,0c0,0,0,0,0,0c0,0,0,0,0,0l0,0c0,0,0,0,0,0c0,0,0,0,0,0
				l0,0c0,0,0,0,0,0c0,0,0,0,0,0l0,0c0,0,0,0,0,0c0,0,0,0,0,0l0,0c0,0,0,0,0,0s0,0,0,0l0,0c0,0,0,0,0,0c0,0,0,0,0,0l0,0c0,0,0,0,0,0
				c0,0,0,0,0,0l0,0c0,0,0,0,0,0c0,0,0,0,0,0l0,0c0,0,0,0,0,0s0,0,0,0l0,0c0,0,0,0,0,0c0,0,0,0,0,0l0,0c0,0,0,0,0,0c0,0,0,0,0,0l0,0
				c0,0,0,0,0,0c0,0,0,0,0,0l0,0c0,0,0,0,0,0c0,0,0,0,0,0l0,0c0,0,0,0,0,0c0,0,0,0,0,0l0,0c0,0,0,0,0,0c0,0,0,0,0,0l0,0c0,0,0,0,0,0
				c0,0,0,0,0,0l0,0c0,0,0,0,0,0c0,0,0,0,0,0l0,0c0,0,0,0,0,0c0,0,0,0,0,0l0,0c0,0,0,0,0,0c0,0,0,0,0,0l0,0c0,0,0,0,0,0c0,0,0,0,0,0
				l0,0c0,0,0,0,0,0c0,0,0,0,0,0l0,0c0,0,0,0,0,0c0,0,0,0,0,0l0,0c0,0,0,0,0,0c0,0,0,0,0,0l0,0c0,0,0,0,0,0c0,0,0,0,0,0l0,0
				c0,0,0,0,0,0c0,0,0,0,0,0l0,0c0,0,0,0,0,0c0,0,0,0,0,0l0,0c0,0,0,0,0,0s0,0,0,0l0,0c0,0,0,0,0,0s0,0,0,0l0,0c0,0,0,0,0,0
				c0,0,0,0,0,0l0,0c0,0,0,0,0,0c0,0,0,0,0,0l0,0c0,0,0,0,0,0c0,0,0,0,0,0l0,0c0,0,0,0,0,0c0,0,0,0,0,0l0,0c0,0,0,0,0,0c0,0,0,0,0,0
				l0,0c0,0,0,0,0,0c0,0,0,0,0,0l0,0c0,0,0,0,0,0c0,0,0,0,0,0l0,0c0,0,0,0,0,0c0,0,0,0,0,0l0,0c0,0,0,0,0,0c0,0,0,0,0,0l0,0
				c0,0,0,0,0,0c0,0,0,0,0,0l0,0c0,0,0,0,0,0c0,0,0,0,0,0l0,0c0,0,0,0,0,0c0,0,0,0,0,0l0,0c0,0,0,0,0,0c0,0,0,0,0,0l0,0c0,0,0,0,0,0
				c0,0,0,0,0,0l0,0c0,0,0,0,0,0c0,0,0,0,0,0l0,0c0,0,0,0,0,0c0,0,0,0,0,0l0,0c0,0,0,0,0,0c0,0,0,0,0,0l0,0c0,0,0,0,0,0c0,0,0,0,0,0
				l0,0c0,0,0,0,0,0c0,0,0,0,0,0l0,0c0,0,0,0,0,0c0,0,0,0,0,0l0,0c0,0,0,0,0,0c0,0,0,0,0,0l0,0c0,0,0,0,0,0c0,0,0,0,0,0l0,0
				c0,0,0,0,0,0c0,0,0,0,0,0l0,0c0,0,0,0,0,0c0,0,0,0,0,0l0,0c0,0,0,0,0,0c0,0,0,0,0,0l0,0c0,0,0,0,0,0s0,0,0,0l0,0c0,0,0,0,0,0
				c0,0,0,0,0,0l0,0c0,0,0,0,0,0c0,0,0,0,0,0l0,0c0,0,0,0,0,0c0,0,0,0,0,0l0,0c0,0,0,0,0,0c0,0,0,0,0,0l0,0c0,0,0,0,0,0c0,0,0,0,0,0
				l0,0c0,0,0,0,0,0s0,0,0,0l0,0c0,0,0,0,0,0c0,0,0,0,0,0l0,0c0,0,0,0,0,0c0,0,0,0,0,0l0,0c0,0,0,0,0,0c0,0,0,0,0,0l0,0c0,0,0,0,0,0
				c0,0,0,0,0,0l0,0c0,0,0,0,0,0c0,0,0,0,0,0l0,0c0,0,0,0,0,0c0,0,0,0,0,0l0,0c0,0,0,0,0,0c0,0,0,0,0,0l0,0c0,0,0,0,0,0c0,0,0,0,0,0
				l0,0c0,0,0,0,0,0c0,0,0,0,0,0l0,0c0,0,0,0,0,0c0,0,0,0,0,0l0,0c0,0,0,0,0,0c0,0,0,0,0,0l0,0c0,0,0,0,0,0c0,0,0,0,0,0l0,0
				c0,0,0,0,0,0c0,0,0,0,0,0l0,0c0,0,0,0,0,0c0,0,0,0,0,0l0,0c0,0,0,0,0,0c0,0,0,0,0,0l0,0c0,0,0,0,0,0s0,0,0,0l0,0c0,0,0,0,0,0
				c0,0,0,0,0,0l0,0c0,0,0,0,0,0c0,0,0,0,0,0l0,0c0,0,0,0,0,0c0,0,0,0,0,0l0,0c0,0,0,0,0,0c0,0,0,0,0,0l0,0c0,0,0,0,0,0c0,0,0,0,0,0
				l0,0c0,0,0,0,0,0c0,0,0,0,0,0l0,0c0,0,0,0,0,0s0,0,0,0l0,0c0,0,0,0,0,0s0,0,0,0l0,0c0,0,0,0,0,0c0,0,0,0,0,0l0,0c0,0,0,0,0,0
				c0,0,0,0,0,0l0,0c0,0,0,0,0,0c0,0,0,0,0,0l0,0c0,0,0,0,0,0c0,0,0,0,0,0l0,0c0,0,0,0,0,0c0,0,0,0,0,0l0,0c0,0,0,0,0,0c0,0,0,0,0,0
				l0,0c0,0,0,0,0,0c0,0,0,0,0,0l0,0c0,0,0,0,0,0c0,0,0,0,0,0l0,0c0,0,0,0,0,0c0,0,0,0,0,0l0,0c0,0,0,0,0,0c0,0,0,0,0,0l0,0
				c0,0,0,0,0,0c0,0,0,0,0,0l0,0c0,0,0,0,0,0c0,0,0,0,0,0l0,0c0,0,0,0,0,0c0,0,0,0,0,0l0,0c0,0,0,0,0,0c0,0,0,0,0,0l0,0c0,0,0,0,0,0
				c0,0,0,0,0,0l0,0c0,0,0,0,0,0c0,0,0,0,0,0l0,0c0,0,0,0,0,0c0,0,0,0,0,0l0,0c0,0,0,0,0,0c0,0,0,0,0,0l0,0c0,0,0,0,0,0s0,0,0,0l0,0
				c0,0,0,0,0,0c0,0,0,0,0,0l0,0c0,0,0,0,0,0s0,0,0,0l0,0c0,0,0,0,0,0c0,0,0,0,0,0l0,0c0,0,0,0,0,0c0,0,0,0,0,0l0,0c0,0,0,0,0,0
				c0,0,0,0,0,0l0,0c0,0,0,0,0,0c0,0,0,0,0,0l0,0c0,0,0,0,0,0c0,0,0,0,0,0l0,0c0,0,0,0,0,0c0,0,0,0,0,0l0,0c0,0,0,0,0,0c0,0,0,0,0,0
				l0,0c0,0,0,0,0,0c0,0,0,0,0,0l0,0c0,0,0,0,0,0c0,0,0,0,0,0l0,0c0,0,0,0,0,0c0,0,0,0,0,0l0,0c0,0,0,0,0,0c0,0,0,0,0,0l0,0
				c0,0,0,0,0,0c0,0,0,0,0,0l0,0c0,0,0,0,0,0c0,0,0,0,0,0l0,0c0,0,0,0,0,0c0,0,0,0,0,0l0,0c0,0,0,0,0,0c0,0,0,0,0,0l0,0c0,0,0,0,0,0
				c0,0,0,0,0,0l0,0c0,0,0,0,0,0c0,0,0,0,0,0l0,0c0,0,0,0,0,0c0,0,0,0,0,0l0,0c0,0,0,0,0,0c0,0,0,0,0,0l0,0c0,0,0,0,0,0c0,0,0,0,0,0
				l0,0c0,0,0,0,0,0c0,0,0,0,0,0l0,0c0,0,0,0,0,0c0,0,0,0,0,0l0,0c0,0,0,0,0,0c0,0,0,0,0,0l0,0c0,0,0,0,0,0c0,0,0,0,0,0l0,0
				c0,0,0,0,0,0c0,0,0,0,0,0l0,0c0,0,0,0,0,0c0,0,0,0,0,0l0,0c0,0,0,0,0,0c0,0,0,0,0,0l0,0c0,0,0,0,0,0c0,0,0,0,0,0l0,0c0,0,0,0,0,0
				c0,0,0,0,0,0l0,0c0,0,0,0,0,0c0,0,0,0,0,0l0,0c0,0,0,0,0,0c0,0,0,0,0,0l0,0c0,0,0,0,0,0c0,0,0,0,0,0l0,0c0,0,0,0,0,0c0,0,0,0,0,0
				l0,0c0,0,0,0,0,0c0,0,0,0,0,0l0,0c0,0,0,0,0,0c0,0,0,0,0,0l0,0c0,0,0,0,0,0c0,0,0,0,0,0l0,0c0,0,0,0,0,0c0,0,0,0,0,0l0,0
				c0,0,0,0,0,0c0,0,0,0,0,0l0,0c0,0,0,0,0,0c0,0,0,0,0,0l0,0c0,0,0,0,0,0c0,0,0,0,0,0l0,0c0,0,0,0,0,0c0,0,0,0,0,0l0,0c0,0,0,0,0,0
				c0,0,0,0,0,0l0,0c0,0,0,0,0,0c0,0,0,0,0,0l0,0c0,0,0,0,0,0c0,0,0,0,0,0l0,0c0,0,0,0,0,0c0,0,0,0,0,0l0,0c0,0,0,0,0,0c0,0,0,0,0,0
				l0,0c0,0,0,0,0,0c0,0,0,0,0,0l0,0c0,0,0,0,0,0c0,0,0,0,0,0l0,0c0,0,0,0,0,0c0,0,0,0,0,0l0,0c0,0,0,0,0,0c0,0,0,0,0,0l0,0
				c0,0,0,0,0,0c0,0,0,0,0,0l0,0c0,0,0,0,0,0c0,0,0,0,0,0l0,0c0,0,0,0,0,0c0,0,0,0,0,0l0,0c0,0,0,0,0,0c0,0,0,0,0,0l0,0c0,0,0,0,0,0
				c0,0,0,0,0,0l0,0c0,0,0,0,0,0c0,0,0,0,0,0l0,0c0,0,0,0,0,0c0,0,0,0,0,0l0,0c0,0,0,0,0,0c0,0,0,0,0,0l0,0c0,0,0,0,0,0c0,0,0,0,0,0
				l0,0c0,0,0,0,0,0c0,0,0,0,0,0l0,0c0,0,0,0,0,0c0,0,0,0,0,0l0,0c0,0,0,0,0,0c0,0,0,0,0,0l0,0c0,0,0,0,0,0c0,0,0,0,0,0l0,0
				c0,0,0,0,0,0c0,0,0,0,0,0l0,0c0,0,0,0,0,0c0,0,0,0,0,0l0,0c0,0,0,0,0,0c0,0,0,0,0,0l0,0c0,0,0,0,0,0c0,0,0,0,0,0l0,0c0,0,0,0,0,0
				c0,0,0,0,0,0l0,0c0,0,0,0,0,0c0,0,0,0,0,0l0,0c0,0,0,0,0,0c0,0,0,0,0,0l0,0c0,0,0,0,0,0c0,0,0,0,0,0l0,0c0,0,0,0,0,0c0,0,0,0,0,0
				l0,0c0,0,0,0,0,0c0,0,0,0,0,0l0,0c0,0,0,0,0,0c0,0,0,0,0,0l0,0c0,0,0,0,0,0c0,0,0,0,0,0l0,0c0,0,0,0,0,0c0,0,0,0,0,0l0,0
				c0,0,0,0,0,0c0,0,0,0,0,0l0,0c0,0,0,0,0,0c0,0,0,0,0,0l0,0c0,0,0,0,0,0c0,0,0,0,0,0l0,0c0,0,0,0,0,0c0,0,0,0,0,0l0,0c0,0,0,0,0,0
				c0,0,0,0,0,0l0,0c0,0,0,0,0,0c0,0,0,0,0,0l0,0c0,0,0,0,0,0c0,0,0,0,0,0l0,0c0,0,0,0,0,0c0,0,0,0,0,0l0,0c0,0,0,0,0,0c0,0,0,0,0,0
				l0,0c0,0,0,0,0,0c0,0,0,0,0,0l0,0c0,0,0,0,0,0c0,0,0,0,0,0l0,0c0,0,0,0,0,0s0,0,0,0l0,0c0,0,0,0,0,0c0,0,0,0,0,0l0,0c0,0,0,0,0,0
				c0,0,0,0,0,0l0,0c0,0,0,0,0,0c0,0,0,0,0,0l0,0c0,0,0,0,0,0c0,0,0,0,0,0l0,0c0,0,0,0,0,0c0,0,0,0,0,0l0,0c0,0,0,0,0,0c0,0,0,0,0,0
				l0,0c0,0,0,0,0,0c0,0,0,0,0,0l0,0c0,0,0,0,0,0c0,0,0,0,0,0l0,0c0,0,0,0,0,0c0,0,0,0,0,0l0,0c0,0,0,0,0,0c0,0,0,0,0,0l0,0
				c0,0,0,0,0,0c0,0,0,0,0,0l0,0c0,0,0,0,0,0c0,0,0,0,0,0l0,0c0,0,0,0,0,0c0,0,0,0,0,0l0,0c0,0,0,0,0,0c0,0,0,0,0,0l0,0c0,0,0,0,0,0
				c0,0,0,0,0,0l0,0c0,0,0,0,0,0c0,0,0,0,0,0l0,0c0,0,0,0,0,0c0,0,0,0,0,0l0,0c0,0,0,0,0,0c0,0,0,0,0,0l0,0c0,0,0,0,0,0c0,0,0,0,0,0
				l0,0c0,0,0,0,0,0c0,0,0,0,0,0l0,0c0,0,0,0,0,0c0,0,0,0,0,0l0,0c0,0,0,0,0,0c0,0,0,0,0,0l0,0c0,0,0,0,0,0c0,0,0,0,0,0l0,0
				c0,0,0,0,0,0c0,0,0,0,0,0l0,0c0,0,0,0,0,0c0,0,0,0,0,0l0,0c0,0,0,0,0,0c0,0,0,0,0,0l0,0c0,0,0,0,0,0c0,0,0,0,0,0l0,0c0,0,0,0,0,0
				c0,0,0,0,0,0l0,0c0,0,0,0,0,0s0,0,0,0l0,0c0,0,0,0,0,0c0,0,0,0,0,0l0,0c0,0,0,0,0,0c0,0,0,0,0,0l0,0c0,0,0,0,0,0s0,0,0,0l0,0
				c0,0,0,0,0,0c0,0,0,0,0,0l0,0c0,0,0,0,0,0c0,0,0,0,0,0l0,0c0,0,0,0,0,0c0,0,0,0,0,0l0,0c0,0,0,0,0,0c0,0,0,0,0,0l0,0c0,0,0,0,0,0
				c0,0,0,0,0,0l0,0c0,0,0,0,0,0c0,0,0,0,0,0l0,0c0,0,0,0,0,0s0,0,0,0l0,0c0,0,0,0,0,0c0,0,0,0,0,0l0,0c0,0,0,0,0,0c0,0,0,0,0,0l0,0
				c0,0,0,0,0,0s0,0,0,0l0,0c0,0,0,0,0,0c0,0,0,0,0,0l0,0c0,0,0,0,0,0c0,0,0,0,0,0l0,0c0,0,0,0,0,0c0,0,0,0,0,0l0,0c0,0,0,0,0,0
				c0,0,0,0,0,0l0,0c0,0,0,0,0,0c0,0,0,0,0,0l0,0c0,0,0,0,0,0c0,0,0,0,0,0l0,0c0,0,0,0,0,0c0,0,0,0,0,0l0,0c0,0,0,0,0,0s0,0,0,0l0,0
				c0,0,0,0,0,0s0,0,0,0l0,0c0,0,0,0,0,0c0,0,0,0,0,0l0,0c0,0,0,0,0,0s0,0,0,0l0,0c0,0,0,0,0,0c0,0,0,0,0,0l0,0c0,0,0,0,0,0
				c0,0,0,0,0,0l0,0c0,0,0,0,0,0c0,0,0,0,0,0l0,0c0,0,0,0,0,0c0,0,0,0,0,0l0,0c0,0,0,0,0,0c0,0,0,0,0,0l0,0c0,0,0,0,0,0c0,0,0,0,0,0
				l0,0c0,0,0,0,0,0c0,0,0,0,0,0l0,0c0,0,0,0,0,0c0,0,0,0,0,0l0,0c0,0,0,0,0,0c0,0,0,0,0,0l0,0c0,0,0,0,0,0c0,0,0,0,0,0l0,0
				c0,0,0,0,0,0c0,0,0,0,0,0l0,0c0,0,0,0,0,0c0,0,0,0,0,0l0,0c0,0,0,0,0,0c0,0,0,0,0,0l0,0c0,0,0,0,0,0c0,0,0,0,0,0l0,0c0,0,0,0,0,0
				c0,0,0,0,0,0l0,0c0,0,0,0,0,0c0,0,0,0,0,0l0,0c0,0,0,0,0,0c0,0,0,0,0,0l0,0c0,0,0,0,0,0c0,0,0,0,0,0l0,0c0,0,0,0,0,0s0,0,0,0l0,0
				c0,0,0,0,0,0c0,0,0,0,0,0l0,0c0,0,0,0,0,0c0,0,0,0,0,0l0,0c0,0,0,0,0,0c0,0,0,0,0,0l0,0c0,0,0,0,0,0c0,0,0,0,0,0l0,0c0,0,0,0,0,0
				c0,0,0,0,0,0l0,0c0,0,0,0,0,0c0,0,0,0,0,0l0,0c0,0,0,0,0,0c0,0,0,0,0,0l0,0c0,0,0,0,0,0c0,0,0,0,0,0l0,0c0,0,0,0,0,0c0,0,0,0,0,0
				l0,0c0,0,0,0,0,0c0,0,0,0,0,0l0,0c0,0,0,0,0,0c0,0,0,0,0,0l0,0c0,0,0,0,0,0c0,0,0,0,0,0l0,0c0,0,0,0,0,0c0,0,0,0,0,0l0,0
				c0,0,0,0,0,0c0,0,0,0,0,0l0,0c0,0,0,0,0,0c0,0,0,0,0,0l0,0c0,0,0,0,0,0c0,0,0,0,0,0l0,0c0,0,0,0,0,0c0,0,0,0,0,0l0,0c0,0,0,0,0,0
				c0,0,0,0,0,0l0,0c0,0,0,0,0,0c0,0,0,0,0,0l0,0c0,0,0,0,0,0c0,0,0,0,0,0l0,0c0,0,0,0,0,0c0,0,0,0,0,0l0,0c0,0,0,0,0,0c0,0,0,0,0,0
				l0,0c0,0,0,0,0,0c0,0,0,0,0,0l0,0c0,0,0,0,0,0c0,0,0,0,0,0l0,0c0,0,0,0,0,0c0,0,0,0,0,0.1l0,0c0,0,0,0,0,0c0,0,0,0,0,0.1l0,0
				c0,0,0,0,0,0c0,2.8-0.4,3.5-4.6,5.8c-1.8,1-11.9,6.2-16.4,8.5C35.5,56.8,33.9,57.1,32.6,57.1"/>
		</defs>
		<defs>
			<path id="SVGID_17_" d="M58.3,41.5c0,2.8-0.4,3.5-4.6,5.8c-1.8,1-11.9,6.2-16.4,8.5C33.1,58,30.4,57,28.7,56
				c-2.5-1.4-6.2-3.4-13.3-7.5c1.1,0.6,10.9,6.3,14.8,2.8c10.8-9.7,20.3-19,26-25.1c2.1-2.3,1.5-4.1,1-5c1,1.3,1.1,1.7,1.1,4.9
				C58.3,30.2,58.3,38.9,58.3,41.5"/>
		</defs>
		<linearGradient id="SVGID_18_" gradientUnits="userSpaceOnUse" x1="28.0988" y1="54.1211" x2="56.9824" y2="28.3047">
			<stop  offset="0" style="stop-color:#E49B0A"/>
			<stop  offset="0.1873" style="stop-color:#ECA72C"/>
			<stop  offset="0.4812" style="stop-color:#FBBE5B"/>
			<stop  offset="0.7454" style="stop-color:#F9B031"/>
			<stop  offset="0.9448" style="stop-color:#F7A70B"/>
		</linearGradient>
		<use xlink:href="#SVGID_17_"  style="overflow:visible;fill:url(#SVGID_18_);"/>
		<clipPath id="SVGID_19_">
			<use xlink:href="#SVGID_16_"  style="overflow:visible;"/>
		</clipPath>
		<clipPath id="SVGID_20_" class="st2">
			<use xlink:href="#SVGID_17_"  style="overflow:visible;"/>
		</clipPath>
	</g>
	<g>
		<g>
			<defs>
				<path id="SVGID_21_" d="M10.7,27.5c0-2,0.1-3.7,0.7-5c0.5-1,0.8-2,3.1-3.3c1.4-0.8,3.3-1.9,5.8-3.2c4.4-2.3,6.8-3.7,9.3-4.9
					c4.7-2.3,8.6-1.4,12.7,0.9c6.7,3.7,8.1,4.5,10.2,5.7c-4.5-2.6-11.1-5.5-15.5-1.6c-6.5,5.7-7.5,6.6-11.8,10.5
					C14,37.2,11.7,39.1,10.7,39.9C10.6,36.9,10.7,30.3,10.7,27.5L10.7,27.5z"/>
			</defs>
			<linearGradient id="SVGID_22_" gradientUnits="userSpaceOnUse" x1="10.2718" y1="37.6042" x2="41.4847" y2="11.8283">
				<stop  offset="0.3446" style="stop-color:#646463"/>
				<stop  offset="0.3972" style="stop-color:#6D6D6C"/>
				<stop  offset="0.4859" style="stop-color:#868585"/>
				<stop  offset="0.5997" style="stop-color:#AAAAA9"/>
				<stop  offset="0.7329" style="stop-color:#D8D8D8"/>
				<stop  offset="0.8164" style="stop-color:#F6F6F6"/>
				<stop  offset="0.8369" style="stop-color:#EFEFEF"/>
				<stop  offset="0.8712" style="stop-color:#DCDCDC"/>
				<stop  offset="0.9152" style="stop-color:#BBBBBB"/>
				<stop  offset="0.9667" style="stop-color:#8B8A8A"/>
				<stop  offset="1" style="stop-color:#646463"/>
			</linearGradient>
			<use xlink:href="#SVGID_21_"  style="overflow:visible;fill:url(#SVGID_22_);"/>
			<clipPath id="SVGID_23_">
				<use xlink:href="#SVGID_21_"  style="overflow:visible;"/>
			</clipPath>
		</g>
		<g>
			<defs>
				<path id="SVGID_24_" d="M9.7,26.3c0-2,0.1-3.7,0.7-5c0.5-1,0.8-2,3.1-3.3c1.4-0.8,3.3-1.9,5.8-3.2c4.4-2.3,6.8-3.7,9.3-4.9
					c4.7-2.3,6.4-1.8,10.5,0.4c2.2,1.2,7.6,4.1,10.6,5.8c-1.7-0.8-9.3-5.9-13.5-1.8c-3.5,3.5-3.5,3.5-7.3,7.5
					C18.2,33.3,14.3,36,9.3,41C9.3,38,9.7,29,9.7,26.3L9.7,26.3z"/>
			</defs>
			<linearGradient id="SVGID_25_" gradientUnits="userSpaceOnUse" x1="10.0586" y1="30.2661" x2="42.0099" y2="11.4712">
				<stop  offset="0.1693" style="stop-color:#3C3C3B"/>
				<stop  offset="0.3276" style="stop-color:#565655"/>
				<stop  offset="0.6104" style="stop-color:#878787"/>
				<stop  offset="1" style="stop-color:#4A4A49"/>
			</linearGradient>
			<use xlink:href="#SVGID_24_"  style="overflow:visible;fill:url(#SVGID_25_);"/>
			<clipPath id="SVGID_26_">
				<use xlink:href="#SVGID_24_"  style="overflow:visible;"/>
			</clipPath>
		</g>
		<g>
			<defs>
				<path id="SVGID_27_" d="M32.7,48c-9-9-17-17-22.1-22.2c-1.4-1.5-2.1-3.4-0.9-5.1c0.7-0.8,1.8-1.6,3.6-2.6
					c-4.2,2.8-0.5,7.1,5,13.4C22.2,36,28.7,43.4,32.7,48C32.8,48,32.7,48,32.7,48"/>
			</defs>
			<linearGradient id="SVGID_28_" gradientUnits="userSpaceOnUse" x1="10.3857" y1="20.0915" x2="33.3953" y2="47.9609">
				<stop  offset="0" style="stop-color:#F6F6F6"/>
				<stop  offset="5.978205e-02" style="stop-color:#EFEFEF"/>
				<stop  offset="0.1605" style="stop-color:#DCDCDB"/>
				<stop  offset="0.2898" style="stop-color:#BBBABA"/>
				<stop  offset="0.4414" style="stop-color:#8A8989"/>
				<stop  offset="0.4475" style="stop-color:#878787"/>
			</linearGradient>
			<use xlink:href="#SVGID_27_"  style="overflow:visible;fill:url(#SVGID_28_);"/>
			<clipPath id="SVGID_29_">
				<use xlink:href="#SVGID_27_"  style="overflow:visible;"/>
			</clipPath>
		</g>
		<g>
			<defs>
				<path id="SVGID_30_" d="M25.4,50.4c-4.3,0-9-1.4-11.5-2.7c-0.2-0.1-0.5-0.3-0.7-0.4c-4-2.3-4.7-3-4.7-5.9c0-2.6,0-10.9,0-15.1
					c0-2.4-0.2-4.1,1.2-5.7c0,0,0,0,0,0c-1.3,1.7-0.5,3.6,0.9,5.1C15.7,31,23.8,39,32.7,48c-0.2,0.2-0.3,0.3-0.5,0.4
					C30.6,49.9,28.1,50.4,25.4,50.4"/>
			</defs>
			<linearGradient id="SVGID_31_" gradientUnits="userSpaceOnUse" x1="23.9665" y1="50.981" x2="7.5488" y2="24.7583">
				<stop  offset="5.754743e-03" style="stop-color:#4A4A49"/>
				<stop  offset="0.2011" style="stop-color:#696868"/>
				<stop  offset="0.3945" style="stop-color:#7F7F7F"/>
				<stop  offset="0.5138" style="stop-color:#878787"/>
				<stop  offset="0.7969" style="stop-color:#555554"/>
				<stop  offset="0.9492" style="stop-color:#3C3C3B"/>
			</linearGradient>
			<use xlink:href="#SVGID_30_"  style="overflow:visible;fill:url(#SVGID_31_);"/>
			<clipPath id="SVGID_32_">
				<use xlink:href="#SVGID_30_"  style="overflow:visible;"/>
			</clipPath>
		</g>
		<g>
			<defs>
				<path id="SVGID_33_" d="M13.8,47.6c0,0-0.1-0.1-0.1-0.1C13.8,47.6,13.8,47.6,13.8,47.6"/>
			</defs>
			<clipPath id="SVGID_34_">
				<use xlink:href="#SVGID_33_"  style="overflow:visible;"/>
			</clipPath>
		</g>
		<g>
			<path class="st3" d="M78.4,46.1h-9.8V19.4h9.7c4,0,7.7,2.4,7.7,6.6c0,3.4-2.3,5.6-4.8,6.2c2.6,0.5,5.3,2.5,5.3,6.3
				C86.5,43.2,82.8,46.1,78.4,46.1z M76.5,23.9h-1.7v6.5h1.7c2.1,0,3.4-1.3,3.4-3.4C79.9,24.9,78.4,23.9,76.5,23.9z M76.8,34.6h-2.1
				v7h2c2.1,0,3.5-1.1,3.5-3.5C80.3,35.9,78.9,34.6,76.8,34.6z"/>
			<path class="st3" d="M101.9,46.5c-7.3,0-12-5.4-12-13.7c0-9.5,6.5-13.7,11.7-13.7c3.7,0,5.7,1,6.6,1.3l-0.2,5.2
				c-0.9-0.6-2.3-1.5-4.9-1.5c-3.8,0-6.6,3.4-6.6,8.8c0,5.4,2.6,8.8,6.5,8.8c3.1,0,4.6-1.2,5.1-1.4l0.2,5.4
				C107.1,46,105.3,46.5,101.9,46.5z"/>
			<path class="st3" d="M112.9,46.1V19.4h6.4v21.7h8.3v5H112.9z"/>
		</g>
	</g>
</g>
</svg>
